<mxfile host="app.diagrams.net" agent="Mozilla/5.0 (Macintosh; Intel Mac OS X 10_15_7) AppleWebKit/537.36 (KHTML, like Gecko) Chrome/134.0.0.0 Safari/537.36" version="25.0.3">
  <diagram name="Page-1" id="5f0bae14-7c28-e335-631c-24af17079c00">
    <mxGraphModel grid="1" page="1" gridSize="10" guides="1" tooltips="1" connect="1" arrows="1" fold="1" pageScale="1" pageWidth="1100" pageHeight="850" background="none" math="0" shadow="0">
      <root>
        <mxCell id="0" />
        <mxCell id="1" parent="0" />
        <mxCell id="ZyLhWv7GtL0qRULzW8Uy-11" value="&lt;span style=&quot;color: rgb(32, 33, 34); font-family: sans-serif; font-size: 12.6px; animation-delay: -0.01ms !important; animation-duration: 0.01ms !important; animation-iteration-count: 1 !important; scroll-behavior: auto !important; transition-duration: 0ms !important;&quot;&gt;&lt;span style=&quot;color: var(--color-emphasized, #000); text-decoration-line: inherit; text-decoration-thickness: inherit; text-decoration-style: inherit; text-decoration-color: var(--color-emphasized, #000); animation-delay: -0.01ms !important; animation-duration: 0.01ms !important; animation-iteration-count: 1 !important; scroll-behavior: auto !important; transition-duration: 0ms !important;&quot;&gt;&lt;span style=&quot;color: rgb(32, 33, 34); animation-delay: -0.01ms !important; animation-duration: 0.01ms !important; animation-iteration-count: 1 !important; scroll-behavior: auto !important; transition-duration: 0ms !important;&quot;&gt;&lt;span style=&quot;color: var(--color-emphasized, #000); text-decoration-line: inherit; text-decoration-thickness: inherit; text-decoration-style: inherit; text-decoration-color: var(--color-emphasized, #000); animation-delay: -0.01ms !important; animation-duration: 0.01ms !important; animation-iteration-count: 1 !important; scroll-behavior: auto !important; transition-duration: 0ms !important;&quot;&gt;«OS&lt;/span&gt;&lt;/span&gt;»&lt;/span&gt;&lt;/span&gt;&lt;div&gt;&lt;font face=&quot;sans-serif&quot;&gt;&lt;span style=&quot;font-size: 12.6px;&quot;&gt;Ubuntu&lt;/span&gt;&lt;/font&gt;&lt;/div&gt;" style="verticalAlign=top;align=center;spacingTop=8;spacingLeft=2;spacingRight=12;shape=cube;size=10;direction=south;fontStyle=0;html=1;rounded=0;shadow=0;comic=0;labelBackgroundColor=none;strokeWidth=1;fontFamily=Verdana;fontSize=12;whiteSpace=wrap;" vertex="1" parent="1">
          <mxGeometry x="10" y="-70" width="1080" height="710" as="geometry" />
        </mxCell>
        <mxCell id="ZyLhWv7GtL0qRULzW8Uy-10" value="&lt;span style=&quot;text-wrap-mode: wrap; color: rgb(32, 33, 34); font-family: sans-serif; font-size: 12.6px; animation-delay: -0.01ms !important; animation-duration: 0.01ms !important; animation-iteration-count: 1 !important; scroll-behavior: auto !important; transition-duration: 0ms !important;&quot;&gt;&lt;span style=&quot;color: var(--color-emphasized, #000); text-decoration-line: inherit; text-decoration-thickness: inherit; text-decoration-style: inherit; text-decoration-color: var(--color-emphasized, #000); animation-delay: -0.01ms !important; animation-duration: 0.01ms !important; animation-iteration-count: 1 !important; scroll-behavior: auto !important; transition-duration: 0ms !important;&quot;&gt;&lt;span style=&quot;color: rgb(32, 33, 34); font-size: 12.6px; animation-delay: -0.01ms !important; animation-duration: 0.01ms !important; animation-iteration-count: 1 !important; scroll-behavior: auto !important; transition-duration: 0ms !important;&quot;&gt;&lt;span style=&quot;color: var(--color-emphasized, #000); text-decoration-line: inherit; text-decoration-thickness: inherit; text-decoration-style: inherit; text-decoration-color: var(--color-emphasized, #000); animation-delay: -0.01ms !important; animation-duration: 0.01ms !important; animation-iteration-count: 1 !important; scroll-behavior: auto !important; transition-duration: 0ms !important;&quot;&gt;«host&lt;/span&gt;&lt;/span&gt;»&lt;/span&gt;&lt;/span&gt;&lt;div style=&quot;text-wrap-mode: wrap;&quot;&gt;&lt;font face=&quot;sans-serif&quot;&gt;&lt;span style=&quot;font-size: 12.6px;&quot;&gt;docker-compose&lt;/span&gt;&lt;/font&gt;&lt;/div&gt;" style="verticalAlign=top;align=center;spacingTop=8;spacingLeft=2;spacingRight=12;shape=cube;size=10;direction=south;fontStyle=0;html=1;rounded=0;shadow=0;comic=0;labelBackgroundColor=none;strokeWidth=1;fontFamily=Verdana;fontSize=12;whiteSpace=wrap;" vertex="1" parent="1">
          <mxGeometry x="60" y="-20" width="990" height="620" as="geometry" />
        </mxCell>
        <mxCell id="ZyLhWv7GtL0qRULzW8Uy-2" value="&lt;span style=&quot;text-wrap-mode: wrap; color: rgb(32, 33, 34); font-family: sans-serif; font-size: 12.6px; animation-delay: -0.01ms !important; animation-duration: 0.01ms !important; animation-iteration-count: 1 !important; scroll-behavior: auto !important; transition-duration: 0ms !important;&quot;&gt;&lt;span style=&quot;color: var(--color-emphasized, #000); text-decoration-line: inherit; text-decoration-thickness: inherit; text-decoration-style: inherit; text-decoration-color: var(--color-emphasized, #000); animation-delay: -0.01ms !important; animation-duration: 0.01ms !important; animation-iteration-count: 1 !important; scroll-behavior: auto !important; transition-duration: 0ms !important;&quot;&gt;&lt;span style=&quot;color: rgb(32, 33, 34); font-size: 12.6px; animation-delay: -0.01ms !important; animation-duration: 0.01ms !important; animation-iteration-count: 1 !important; scroll-behavior: auto !important; transition-duration: 0ms !important;&quot;&gt;&lt;span style=&quot;color: var(--color-emphasized, #000); text-decoration-line: inherit; text-decoration-thickness: inherit; text-decoration-style: inherit; text-decoration-color: var(--color-emphasized, #000); animation-delay: -0.01ms !important; animation-duration: 0.01ms !important; animation-iteration-count: 1 !important; scroll-behavior: auto !important; transition-duration: 0ms !important;&quot;&gt;«service&lt;/span&gt;&lt;/span&gt;»&lt;/span&gt;&lt;/span&gt;&lt;div style=&quot;text-wrap-mode: wrap;&quot;&gt;&lt;font face=&quot;sans-serif&quot;&gt;&lt;span style=&quot;font-size: 12.6px;&quot;&gt;rentplace-app&lt;/span&gt;&lt;/font&gt;&lt;/div&gt;" style="verticalAlign=top;align=center;spacingTop=8;spacingLeft=2;spacingRight=12;shape=cube;size=10;direction=south;fontStyle=0;html=1;rounded=0;shadow=0;comic=0;labelBackgroundColor=none;strokeWidth=1;fontFamily=Verdana;fontSize=12;whiteSpace=wrap;" vertex="1" parent="1">
          <mxGeometry x="140" y="30" width="690" height="450" as="geometry" />
        </mxCell>
        <mxCell id="5yASMywovgelRF4tE-_4-5" value="&lt;span style=&quot;text-wrap-mode: wrap; color: rgb(32, 33, 34); font-family: sans-serif; font-size: 12.6px; animation-delay: -0.01ms !important; animation-duration: 0.01ms !important; animation-iteration-count: 1 !important; scroll-behavior: auto !important; transition-duration: 0ms !important;&quot;&gt;&lt;span style=&quot;color: var(--color-emphasized, #000); text-decoration-line: inherit; text-decoration-thickness: inherit; text-decoration-style: inherit; text-decoration-color: var(--color-emphasized, #000); animation-delay: -0.01ms !important; animation-duration: 0.01ms !important; animation-iteration-count: 1 !important; scroll-behavior: auto !important; transition-duration: 0ms !important;&quot;&gt;&lt;span style=&quot;color: rgb(32, 33, 34); font-size: 12.6px; animation-delay: -0.01ms !important; animation-duration: 0.01ms !important; animation-iteration-count: 1 !important; scroll-behavior: auto !important; transition-duration: 0ms !important;&quot;&gt;&lt;span style=&quot;color: var(--color-emphasized, #000); text-decoration-line: inherit; text-decoration-thickness: inherit; text-decoration-style: inherit; text-decoration-color: var(--color-emphasized, #000); animation-delay: -0.01ms !important; animation-duration: 0.01ms !important; animation-iteration-count: 1 !important; scroll-behavior: auto !important; transition-duration: 0ms !important;&quot;&gt;«image&lt;/span&gt;&lt;/span&gt;»&lt;/span&gt;&lt;/span&gt;&lt;div style=&quot;text-wrap-mode: wrap;&quot;&gt;&lt;font face=&quot;sans-serif&quot;&gt;&lt;span style=&quot;font-size: 12.6px;&quot;&gt;backend&lt;/span&gt;&lt;/font&gt;&lt;/div&gt;" style="verticalAlign=top;align=center;spacingTop=8;spacingLeft=2;spacingRight=12;shape=cube;size=10;direction=south;fontStyle=0;html=1;rounded=0;shadow=0;comic=0;labelBackgroundColor=none;strokeWidth=1;fontFamily=Verdana;fontSize=12" vertex="1" parent="1">
          <mxGeometry x="170" y="80" width="260" height="210" as="geometry" />
        </mxCell>
        <mxCell id="39150e848f15840c-1" value="&lt;div&gt;&lt;div&gt;&lt;span style=&quot;text-wrap-mode: wrap; color: rgb(32, 33, 34); font-family: sans-serif; font-size: 12.6px; animation-delay: -0.01ms !important; animation-duration: 0.01ms !important; animation-iteration-count: 1 !important; scroll-behavior: auto !important; transition-duration: 0ms !important;&quot;&gt;&lt;span style=&quot;color: var(--color-emphasized, #000); animation-delay: -0.01ms !important; animation-duration: 0.01ms !important; animation-iteration-count: 1 !important; scroll-behavior: auto !important; transition-duration: 0ms !important;&quot;&gt;&lt;span style=&quot;color: rgb(32, 33, 34); font-size: 12.6px; animation-delay: -0.01ms !important; animation-duration: 0.01ms !important; animation-iteration-count: 1 !important; scroll-behavior: auto !important; transition-duration: 0ms !important;&quot;&gt;&lt;span style=&quot;color: var(--color-emphasized, #000); text-decoration-line: inherit; text-decoration-thickness: inherit; text-decoration-style: inherit; text-decoration-color: var(--color-emphasized, #000); animation-delay: -0.01ms !important; animation-duration: 0.01ms !important; animation-iteration-count: 1 !important; scroll-behavior: auto !important; transition-duration: 0ms !important;&quot;&gt;&lt;span style=&quot;color: rgb(32, 33, 34); font-size: 12.6px; animation-delay: -0.01ms !important; animation-duration: 0.01ms !important; animation-iteration-count: 1 !important; scroll-behavior: auto !important; transition-duration: 0ms !important;&quot;&gt;&lt;span style=&quot;color: var(--color-emphasized, #000); text-decoration-line: inherit; text-decoration-thickness: inherit; text-decoration-style: inherit; text-decoration-color: var(--color-emphasized, #000); animation-delay: -0.01ms !important; animation-duration: 0.01ms !important; animation-iteration-count: 1 !important; scroll-behavior: auto !important; transition-duration: 0ms !important;&quot;&gt;«server&lt;/span&gt;&lt;/span&gt;»&lt;/span&gt;&lt;/span&gt;&lt;/span&gt;&lt;/span&gt;&lt;/div&gt;&lt;/div&gt;&lt;div&gt;&lt;span style=&quot;text-wrap-mode: wrap; color: rgb(32, 33, 34); font-family: sans-serif; font-size: 12.6px; animation-delay: -0.01ms !important; animation-duration: 0.01ms !important; animation-iteration-count: 1 !important; scroll-behavior: auto !important; transition-duration: 0ms !important;&quot;&gt;&lt;span style=&quot;color: var(--color-emphasized, #000); animation-delay: -0.01ms !important; animation-duration: 0.01ms !important; animation-iteration-count: 1 !important; scroll-behavior: auto !important; transition-duration: 0ms !important;&quot;&gt;&lt;span style=&quot;color: rgb(32, 33, 34); font-size: 12.6px; animation-delay: -0.01ms !important; animation-duration: 0.01ms !important; animation-iteration-count: 1 !important; scroll-behavior: auto !important; transition-duration: 0ms !important;&quot;&gt;&lt;span style=&quot;color: var(--color-emphasized, #000); text-decoration-line: inherit; text-decoration-thickness: inherit; text-decoration-style: inherit; text-decoration-color: var(--color-emphasized, #000); animation-delay: -0.01ms !important; animation-duration: 0.01ms !important; animation-iteration-count: 1 !important; scroll-behavior: auto !important; transition-duration: 0ms !important;&quot;&gt;spring-boot&lt;/span&gt;&lt;/span&gt;&lt;/span&gt;&lt;/span&gt;&lt;/div&gt;" style="verticalAlign=top;align=center;spacingTop=8;spacingLeft=2;spacingRight=12;shape=cube;size=10;direction=south;fontStyle=0;html=1;rounded=0;shadow=0;comic=0;labelBackgroundColor=none;strokeWidth=1;fontFamily=Verdana;fontSize=12;whiteSpace=wrap;" vertex="1" parent="1">
          <mxGeometry x="200" y="130" width="200" height="140" as="geometry" />
        </mxCell>
        <mxCell id="39150e848f15840c-3" value="&lt;div&gt;&lt;br&gt;&lt;/div&gt;&lt;div&gt;&lt;br&gt;&lt;/div&gt;" style="verticalAlign=top;align=center;spacingTop=8;spacingLeft=2;spacingRight=12;shape=cube;size=10;direction=south;fontStyle=4;html=1;rounded=0;shadow=0;comic=0;labelBackgroundColor=none;strokeWidth=1;fontFamily=Verdana;fontSize=12" vertex="1" parent="1">
          <mxGeometry x="290" y="380" width="180" height="60" as="geometry" />
        </mxCell>
        <mxCell id="39150e848f15840c-5" value="&lt;span style=&quot;text-wrap-mode: wrap; color: rgb(32, 33, 34); font-family: sans-serif; font-size: 12.6px; animation-delay: -0.01ms !important; animation-duration: 0.01ms !important; animation-iteration-count: 1 !important; scroll-behavior: auto !important; transition-duration: 0ms !important;&quot;&gt;&lt;span style=&quot;color: var(--color-emphasized, #000); text-decoration-line: inherit; text-decoration-thickness: inherit; text-decoration-style: inherit; text-decoration-color: var(--color-emphasized, #000); animation-delay: -0.01ms !important; animation-duration: 0.01ms !important; animation-iteration-count: 1 !important; scroll-behavior: auto !important; transition-duration: 0ms !important;&quot;&gt;&lt;span style=&quot;color: rgb(32, 33, 34); font-size: 12.6px; animation-delay: -0.01ms !important; animation-duration: 0.01ms !important; animation-iteration-count: 1 !important; scroll-behavior: auto !important; transition-duration: 0ms !important;&quot;&gt;&lt;span style=&quot;color: var(--color-emphasized, #000); text-decoration-line: inherit; text-decoration-thickness: inherit; text-decoration-style: inherit; text-decoration-color: var(--color-emphasized, #000); animation-delay: -0.01ms !important; animation-duration: 0.01ms !important; animation-iteration-count: 1 !important; scroll-behavior: auto !important; transition-duration: 0ms !important;&quot;&gt;«Spring Web&lt;/span&gt;&lt;/span&gt;»&lt;/span&gt;&lt;/span&gt;&lt;div style=&quot;&quot;&gt;&lt;font face=&quot;sans-serif&quot;&gt;&lt;span style=&quot;font-size: 12.6px; text-wrap-mode: wrap;&quot;&gt;rentplace API&lt;/span&gt;&lt;/font&gt;&lt;/div&gt;" style="shape=component;align=center;spacingLeft=36;rounded=0;shadow=0;comic=0;labelBackgroundColor=none;strokeWidth=1;fontFamily=Verdana;fontSize=12;html=1;verticalAlign=middle;whiteSpace=wrap;" vertex="1" parent="1">
          <mxGeometry x="220" y="180" width="140" height="60" as="geometry" />
        </mxCell>
        <mxCell id="39150e848f15840c-18" style="edgeStyle=orthogonalEdgeStyle;rounded=0;html=1;labelBackgroundColor=none;startArrow=none;startFill=0;startSize=8;endArrow=none;endFill=0;endSize=16;fontFamily=Verdana;fontSize=12;exitX=0;exitY=0;exitDx=0;exitDy=85;exitPerimeter=0;entryX=0;entryY=0;entryDx=210;entryDy=135;entryPerimeter=0;" edge="1" parent="1" source="39150e848f15840c-3" target="5yASMywovgelRF4tE-_4-5">
          <mxGeometry relative="1" as="geometry">
            <Array as="points">
              <mxPoint x="385" y="330" />
              <mxPoint x="295" y="330" />
            </Array>
          </mxGeometry>
        </mxCell>
        <mxCell id="5yASMywovgelRF4tE-_4-1" value="&lt;span style=&quot;color: rgb(32, 33, 34); font-family: sans-serif; font-size: 12.6px; animation-delay: -0.01ms !important; animation-duration: 0.01ms !important; animation-iteration-count: 1 !important; scroll-behavior: auto !important; transition-duration: 0ms !important;&quot;&gt;&lt;span style=&quot;color: var(--color-emphasized, #000); text-decoration-line: inherit; text-decoration-thickness: inherit; text-decoration-style: inherit; text-decoration-color: var(--color-emphasized, #000); animation-delay: -0.01ms !important; animation-duration: 0.01ms !important; animation-iteration-count: 1 !important; scroll-behavior: auto !important; transition-duration: 0ms !important;&quot;&gt;&lt;span style=&quot;color: rgb(32, 33, 34); font-size: 12.6px; animation-delay: -0.01ms !important; animation-duration: 0.01ms !important; animation-iteration-count: 1 !important; scroll-behavior: auto !important; transition-duration: 0ms !important;&quot;&gt;&lt;span style=&quot;color: var(--color-emphasized, #000); text-decoration-line: inherit; text-decoration-thickness: inherit; text-decoration-style: inherit; text-decoration-color: var(--color-emphasized, #000); animation-delay: -0.01ms !important; animation-duration: 0.01ms !important; animation-iteration-count: 1 !important; scroll-behavior: auto !important; transition-duration: 0ms !important;&quot;&gt;«image&lt;/span&gt;&lt;/span&gt;»&lt;/span&gt;&lt;/span&gt;&lt;div&gt;&lt;span style=&quot;color: rgb(32, 33, 34); font-family: sans-serif; font-size: 12.6px; animation-delay: -0.01ms !important; animation-duration: 0.01ms !important; animation-iteration-count: 1 !important; scroll-behavior: auto !important; transition-duration: 0ms !important;&quot;&gt;&lt;span style=&quot;color: var(--color-emphasized, #000); text-decoration-line: inherit; text-decoration-thickness: inherit; text-decoration-style: inherit; text-decoration-color: var(--color-emphasized, #000); animation-delay: -0.01ms !important; animation-duration: 0.01ms !important; animation-iteration-count: 1 !important; scroll-behavior: auto !important; transition-duration: 0ms !important;&quot;&gt;postgres&lt;/span&gt;&lt;/span&gt;&lt;/div&gt;" style="text;html=1;align=center;verticalAlign=middle;whiteSpace=wrap;rounded=0;" vertex="1" parent="1">
          <mxGeometry x="350" y="395" width="60" height="30" as="geometry" />
        </mxCell>
        <mxCell id="5yASMywovgelRF4tE-_4-2" value="+ Spring Data JPA" style="text;html=1;align=center;verticalAlign=middle;resizable=0;points=[];autosize=1;strokeColor=none;fillColor=none;" vertex="1" parent="1">
          <mxGeometry x="270" y="335" width="120" height="30" as="geometry" />
        </mxCell>
        <mxCell id="5yASMywovgelRF4tE-_4-3" value="&lt;div&gt;&lt;br&gt;&lt;/div&gt;&lt;div&gt;&lt;br&gt;&lt;/div&gt;" style="verticalAlign=top;align=center;spacingTop=8;spacingLeft=2;spacingRight=12;shape=cube;size=10;direction=south;fontStyle=4;html=1;rounded=0;shadow=0;comic=0;labelBackgroundColor=none;strokeWidth=1;fontFamily=Verdana;fontSize=12" vertex="1" parent="1">
          <mxGeometry x="850" y="365" width="180" height="60" as="geometry" />
        </mxCell>
        <mxCell id="5yASMywovgelRF4tE-_4-4" value="&lt;span style=&quot;color: rgb(32, 33, 34); font-family: sans-serif; font-size: 12.6px; animation-delay: -0.01ms !important; animation-duration: 0.01ms !important; animation-iteration-count: 1 !important; scroll-behavior: auto !important; transition-duration: 0ms !important;&quot;&gt;&lt;span style=&quot;color: var(--color-emphasized, #000); text-decoration-line: inherit; text-decoration-thickness: inherit; text-decoration-style: inherit; text-decoration-color: var(--color-emphasized, #000); animation-delay: -0.01ms !important; animation-duration: 0.01ms !important; animation-iteration-count: 1 !important; scroll-behavior: auto !important; transition-duration: 0ms !important;&quot;&gt;&lt;span style=&quot;color: rgb(32, 33, 34); font-size: 12.6px; animation-delay: -0.01ms !important; animation-duration: 0.01ms !important; animation-iteration-count: 1 !important; scroll-behavior: auto !important; transition-duration: 0ms !important;&quot;&gt;&lt;span style=&quot;color: var(--color-emphasized, #000); text-decoration-line: inherit; text-decoration-thickness: inherit; text-decoration-style: inherit; text-decoration-color: var(--color-emphasized, #000); animation-delay: -0.01ms !important; animation-duration: 0.01ms !important; animation-iteration-count: 1 !important; scroll-behavior: auto !important; transition-duration: 0ms !important;&quot;&gt;«image&lt;/span&gt;&lt;/span&gt;»&lt;/span&gt;&lt;/span&gt;&lt;div&gt;&lt;span style=&quot;color: rgb(32, 33, 34); font-family: sans-serif; font-size: 12.6px; animation-delay: -0.01ms !important; animation-duration: 0.01ms !important; animation-iteration-count: 1 !important; scroll-behavior: auto !important; transition-duration: 0ms !important;&quot;&gt;&lt;span style=&quot;color: var(--color-emphasized, #000); text-decoration-line: inherit; text-decoration-thickness: inherit; text-decoration-style: inherit; text-decoration-color: var(--color-emphasized, #000); animation-delay: -0.01ms !important; animation-duration: 0.01ms !important; animation-iteration-count: 1 !important; scroll-behavior: auto !important; transition-duration: 0ms !important;&quot;&gt;postgres-db&lt;/span&gt;&lt;/span&gt;&lt;/div&gt;" style="text;html=1;align=center;verticalAlign=middle;whiteSpace=wrap;rounded=0;" vertex="1" parent="1">
          <mxGeometry x="890" y="380" width="100" height="30" as="geometry" />
        </mxCell>
        <mxCell id="5yASMywovgelRF4tE-_4-6" value="&lt;span style=&quot;text-wrap-mode: wrap; color: rgb(32, 33, 34); font-family: sans-serif; font-size: 12.6px; animation-delay: -0.01ms !important; animation-duration: 0.01ms !important; animation-iteration-count: 1 !important; scroll-behavior: auto !important; transition-duration: 0ms !important;&quot;&gt;&lt;span style=&quot;color: var(--color-emphasized, #000); text-decoration-line: inherit; text-decoration-thickness: inherit; text-decoration-style: inherit; text-decoration-color: var(--color-emphasized, #000); animation-delay: -0.01ms !important; animation-duration: 0.01ms !important; animation-iteration-count: 1 !important; scroll-behavior: auto !important; transition-duration: 0ms !important;&quot;&gt;&lt;span style=&quot;color: rgb(32, 33, 34); font-size: 12.6px; animation-delay: -0.01ms !important; animation-duration: 0.01ms !important; animation-iteration-count: 1 !important; scroll-behavior: auto !important; transition-duration: 0ms !important;&quot;&gt;&lt;span style=&quot;color: var(--color-emphasized, #000); text-decoration-line: inherit; text-decoration-thickness: inherit; text-decoration-style: inherit; text-decoration-color: var(--color-emphasized, #000); animation-delay: -0.01ms !important; animation-duration: 0.01ms !important; animation-iteration-count: 1 !important; scroll-behavior: auto !important; transition-duration: 0ms !important;&quot;&gt;«image&lt;/span&gt;&lt;/span&gt;»&lt;/span&gt;&lt;/span&gt;&lt;div style=&quot;text-wrap-mode: wrap;&quot;&gt;&lt;font face=&quot;sans-serif&quot;&gt;&lt;span style=&quot;font-size: 12.6px;&quot;&gt;admin-panel&lt;/span&gt;&lt;/font&gt;&lt;/div&gt;" style="verticalAlign=top;align=center;spacingTop=8;spacingLeft=2;spacingRight=12;shape=cube;size=10;direction=south;fontStyle=0;html=1;rounded=0;shadow=0;comic=0;labelBackgroundColor=none;strokeWidth=1;fontFamily=Verdana;fontSize=12;whiteSpace=wrap;" vertex="1" parent="1">
          <mxGeometry x="560" y="100" width="200" height="150" as="geometry" />
        </mxCell>
        <mxCell id="5yASMywovgelRF4tE-_4-8" value="&lt;span style=&quot;text-wrap-mode: wrap; color: rgb(32, 33, 34); font-family: sans-serif; font-size: 12.6px; animation-delay: -0.01ms !important; animation-duration: 0.01ms !important; animation-iteration-count: 1 !important; scroll-behavior: auto !important; transition-duration: 0ms !important;&quot;&gt;&lt;span style=&quot;color: var(--color-emphasized, #000); text-decoration-line: inherit; text-decoration-thickness: inherit; text-decoration-style: inherit; text-decoration-color: var(--color-emphasized, #000); animation-delay: -0.01ms !important; animation-duration: 0.01ms !important; animation-iteration-count: 1 !important; scroll-behavior: auto !important; transition-duration: 0ms !important;&quot;&gt;&lt;span style=&quot;color: rgb(32, 33, 34); font-size: 12.6px; animation-delay: -0.01ms !important; animation-duration: 0.01ms !important; animation-iteration-count: 1 !important; scroll-behavior: auto !important; transition-duration: 0ms !important;&quot;&gt;&lt;span style=&quot;color: var(--color-emphasized, #000); text-decoration-line: inherit; text-decoration-thickness: inherit; text-decoration-style: inherit; text-decoration-color: var(--color-emphasized, #000); animation-delay: -0.01ms !important; animation-duration: 0.01ms !important; animation-iteration-count: 1 !important; scroll-behavior: auto !important; transition-duration: 0ms !important;&quot;&gt;«build&lt;/span&gt;&lt;/span&gt;»&lt;/span&gt;&lt;/span&gt;&lt;div style=&quot;&quot;&gt;&lt;font face=&quot;sans-serif&quot;&gt;&lt;span style=&quot;font-size: 12.6px;&quot;&gt;react-app&lt;/span&gt;&lt;/font&gt;&lt;/div&gt;" style="shape=component;align=center;spacingLeft=36;rounded=0;shadow=0;comic=0;labelBackgroundColor=none;strokeWidth=1;fontFamily=Verdana;fontSize=12;html=1;verticalAlign=middle;whiteSpace=wrap;" vertex="1" parent="1">
          <mxGeometry x="580" y="160" width="130" height="55" as="geometry" />
        </mxCell>
        <mxCell id="5yASMywovgelRF4tE-_4-9" style="edgeStyle=orthogonalEdgeStyle;rounded=0;html=1;labelBackgroundColor=none;startArrow=none;startFill=0;startSize=8;endArrow=none;endFill=0;endSize=16;fontFamily=Verdana;fontSize=12;exitX=0;exitY=0;exitDx=80;exitDy=200;exitPerimeter=0;entryX=0;entryY=0;entryDx=100;entryDy=0;entryPerimeter=0;" edge="1" parent="1" source="5yASMywovgelRF4tE-_4-6" target="5yASMywovgelRF4tE-_4-5">
          <mxGeometry relative="1" as="geometry">
            <Array as="points">
              <mxPoint x="540" y="180" />
              <mxPoint x="540" y="180" />
            </Array>
            <mxPoint x="595" y="440" as="sourcePoint" />
            <mxPoint x="505" y="280" as="targetPoint" />
          </mxGeometry>
        </mxCell>
        <mxCell id="ZyLhWv7GtL0qRULzW8Uy-1" value="&lt;span style=&quot;text-wrap-mode: wrap; background-color: rgb(251, 251, 251); color: rgb(32, 33, 34); font-family: sans-serif; font-size: 12.6px; animation-delay: -0.01ms !important; animation-duration: 0.01ms !important; animation-iteration-count: 1 !important; scroll-behavior: auto !important; transition-duration: 0ms !important;&quot;&gt;&lt;span style=&quot;color: var(--color-emphasized, #000); text-decoration-line: inherit; text-decoration-thickness: inherit; text-decoration-style: inherit; text-decoration-color: var(--color-emphasized, #000); animation-delay: -0.01ms !important; animation-duration: 0.01ms !important; animation-iteration-count: 1 !important; scroll-behavior: auto !important; transition-duration: 0ms !important;&quot;&gt;&lt;span style=&quot;color: rgb(32, 33, 34); animation-delay: -0.01ms !important; animation-duration: 0.01ms !important; animation-iteration-count: 1 !important; scroll-behavior: auto !important; transition-duration: 0ms !important;&quot;&gt;&lt;span style=&quot;color: var(--color-emphasized, #000); text-decoration-line: inherit; text-decoration-thickness: inherit; text-decoration-style: inherit; text-decoration-color: var(--color-emphasized, #000); animation-delay: -0.01ms !important; animation-duration: 0.01ms !important; animation-iteration-count: 1 !important; scroll-behavior: auto !important; transition-duration: 0ms !important;&quot;&gt;«protocol&lt;/span&gt;&lt;/span&gt;»&lt;/span&gt;&lt;/span&gt;&lt;div&gt;&lt;div&gt;&lt;span style=&quot;text-wrap-mode: wrap; background-color: rgb(251, 251, 251); color: rgb(32, 33, 34); font-family: sans-serif; font-size: 12.6px; animation-delay: -0.01ms !important; animation-duration: 0.01ms !important; animation-iteration-count: 1 !important; scroll-behavior: auto !important; transition-duration: 0ms !important;&quot;&gt;&lt;span style=&quot;color: var(--color-emphasized, #000); text-decoration-line: inherit; text-decoration-thickness: inherit; text-decoration-style: inherit; text-decoration-color: var(--color-emphasized, #000); animation-delay: -0.01ms !important; animation-duration: 0.01ms !important; animation-iteration-count: 1 !important; scroll-behavior: auto !important; transition-duration: 0ms !important;&quot;&gt;+HTTP&lt;/span&gt;&lt;/span&gt;&lt;/div&gt;&lt;/div&gt;" style="edgeLabel;html=1;align=center;verticalAlign=middle;resizable=0;points=[];" connectable="0" vertex="1" parent="5yASMywovgelRF4tE-_4-9">
          <mxGeometry x="0.0462" y="-1" relative="1" as="geometry">
            <mxPoint as="offset" />
          </mxGeometry>
        </mxCell>
        <mxCell id="ZyLhWv7GtL0qRULzW8Uy-3" style="edgeStyle=orthogonalEdgeStyle;rounded=0;orthogonalLoop=1;jettySize=auto;html=1;exitX=0;exitY=0;exitDx=0;exitDy=85;exitPerimeter=0;entryX=0.66;entryY=-0.001;entryDx=0;entryDy=0;entryPerimeter=0;dashed=1;endArrow=none;endFill=0;" edge="1" parent="1" source="5yASMywovgelRF4tE-_4-3" target="ZyLhWv7GtL0qRULzW8Uy-2">
          <mxGeometry relative="1" as="geometry" />
        </mxCell>
        <mxCell id="ZyLhWv7GtL0qRULzW8Uy-4" value="+ volume_from" style="text;html=1;align=center;verticalAlign=middle;resizable=0;points=[];autosize=1;strokeColor=none;fillColor=none;" vertex="1" parent="1">
          <mxGeometry x="830" y="330" width="100" height="30" as="geometry" />
        </mxCell>
        <mxCell id="ZyLhWv7GtL0qRULzW8Uy-5" value="&lt;span style=&quot;text-wrap-mode: wrap; color: rgb(32, 33, 34); font-family: sans-serif; font-size: 12.6px; animation-delay: -0.01ms !important; animation-duration: 0.01ms !important; animation-iteration-count: 1 !important; scroll-behavior: auto !important; transition-duration: 0ms !important;&quot;&gt;&lt;span style=&quot;color: var(--color-emphasized, #000); text-decoration-line: inherit; text-decoration-thickness: inherit; text-decoration-style: inherit; text-decoration-color: var(--color-emphasized, #000); animation-delay: -0.01ms !important; animation-duration: 0.01ms !important; animation-iteration-count: 1 !important; scroll-behavior: auto !important; transition-duration: 0ms !important;&quot;&gt;&lt;span style=&quot;color: rgb(32, 33, 34); font-size: 12.6px; animation-delay: -0.01ms !important; animation-duration: 0.01ms !important; animation-iteration-count: 1 !important; scroll-behavior: auto !important; transition-duration: 0ms !important;&quot;&gt;&lt;span style=&quot;color: var(--color-emphasized, #000); text-decoration-line: inherit; text-decoration-thickness: inherit; text-decoration-style: inherit; text-decoration-color: var(--color-emphasized, #000); animation-delay: -0.01ms !important; animation-duration: 0.01ms !important; animation-iteration-count: 1 !important; scroll-behavior: auto !important; transition-duration: 0ms !important;&quot;&gt;«image&lt;/span&gt;&lt;/span&gt;»&lt;/span&gt;&lt;/span&gt;&lt;div style=&quot;text-wrap-mode: wrap;&quot;&gt;&lt;font face=&quot;sans-serif&quot;&gt;&lt;span style=&quot;font-size: 12.6px;&quot;&gt;mobile-pwa-app&lt;/span&gt;&lt;/font&gt;&lt;/div&gt;" style="verticalAlign=top;align=center;spacingTop=8;spacingLeft=2;spacingRight=12;shape=cube;size=10;direction=south;fontStyle=0;html=1;rounded=0;shadow=0;comic=0;labelBackgroundColor=none;strokeWidth=1;fontFamily=Verdana;fontSize=12;whiteSpace=wrap;" vertex="1" parent="1">
          <mxGeometry x="560" y="275" width="200" height="150" as="geometry" />
        </mxCell>
        <mxCell id="ZyLhWv7GtL0qRULzW8Uy-6" value="&lt;span style=&quot;text-wrap-mode: wrap; color: rgb(32, 33, 34); font-family: sans-serif; font-size: 12.6px; animation-delay: -0.01ms !important; animation-duration: 0.01ms !important; animation-iteration-count: 1 !important; scroll-behavior: auto !important; transition-duration: 0ms !important;&quot;&gt;&lt;span style=&quot;color: var(--color-emphasized, #000); text-decoration-line: inherit; text-decoration-thickness: inherit; text-decoration-style: inherit; text-decoration-color: var(--color-emphasized, #000); animation-delay: -0.01ms !important; animation-duration: 0.01ms !important; animation-iteration-count: 1 !important; scroll-behavior: auto !important; transition-duration: 0ms !important;&quot;&gt;&lt;span style=&quot;color: rgb(32, 33, 34); font-size: 12.6px; animation-delay: -0.01ms !important; animation-duration: 0.01ms !important; animation-iteration-count: 1 !important; scroll-behavior: auto !important; transition-duration: 0ms !important;&quot;&gt;&lt;span style=&quot;color: var(--color-emphasized, #000); text-decoration-line: inherit; text-decoration-thickness: inherit; text-decoration-style: inherit; text-decoration-color: var(--color-emphasized, #000); animation-delay: -0.01ms !important; animation-duration: 0.01ms !important; animation-iteration-count: 1 !important; scroll-behavior: auto !important; transition-duration: 0ms !important;&quot;&gt;«build&lt;/span&gt;&lt;/span&gt;»&lt;/span&gt;&lt;/span&gt;&lt;div style=&quot;&quot;&gt;&lt;font face=&quot;sans-serif&quot;&gt;&lt;span style=&quot;font-size: 12.6px;&quot;&gt;react-app&lt;/span&gt;&lt;/font&gt;&lt;/div&gt;" style="shape=component;align=center;spacingLeft=36;rounded=0;shadow=0;comic=0;labelBackgroundColor=none;strokeWidth=1;fontFamily=Verdana;fontSize=12;html=1;verticalAlign=middle;whiteSpace=wrap;" vertex="1" parent="1">
          <mxGeometry x="580" y="335" width="130" height="55" as="geometry" />
        </mxCell>
        <mxCell id="ZyLhWv7GtL0qRULzW8Uy-8" style="edgeStyle=orthogonalEdgeStyle;rounded=0;orthogonalLoop=1;jettySize=auto;html=1;exitX=0;exitY=0;exitDx=80;exitDy=200;exitPerimeter=0;entryX=0.743;entryY=-0.004;entryDx=0;entryDy=0;entryPerimeter=0;endArrow=none;endFill=0;" edge="1" parent="1" source="ZyLhWv7GtL0qRULzW8Uy-5" target="5yASMywovgelRF4tE-_4-5">
          <mxGeometry relative="1" as="geometry" />
        </mxCell>
        <mxCell id="ZyLhWv7GtL0qRULzW8Uy-9" value="&lt;span style=&quot;text-wrap-mode: wrap; background-color: rgb(251, 251, 251); color: rgb(32, 33, 34); font-family: sans-serif; font-size: 12.6px; animation-delay: -0.01ms !important; animation-duration: 0.01ms !important; animation-iteration-count: 1 !important; scroll-behavior: auto !important; transition-duration: 0ms !important;&quot;&gt;&lt;span style=&quot;color: var(--color-emphasized, #000); text-decoration-line: inherit; text-decoration-thickness: inherit; text-decoration-style: inherit; text-decoration-color: var(--color-emphasized, #000); animation-delay: -0.01ms !important; animation-duration: 0.01ms !important; animation-iteration-count: 1 !important; scroll-behavior: auto !important; transition-duration: 0ms !important;&quot;&gt;&lt;span style=&quot;color: rgb(32, 33, 34); animation-delay: -0.01ms !important; animation-duration: 0.01ms !important; animation-iteration-count: 1 !important; scroll-behavior: auto !important; transition-duration: 0ms !important;&quot;&gt;&lt;span style=&quot;color: var(--color-emphasized, #000); text-decoration-line: inherit; text-decoration-thickness: inherit; text-decoration-style: inherit; text-decoration-color: var(--color-emphasized, #000); animation-delay: -0.01ms !important; animation-duration: 0.01ms !important; animation-iteration-count: 1 !important; scroll-behavior: auto !important; transition-duration: 0ms !important;&quot;&gt;«protocol&lt;/span&gt;&lt;/span&gt;»&lt;/span&gt;&lt;/span&gt;&lt;div&gt;&lt;span style=&quot;text-wrap-mode: wrap; background-color: rgb(251, 251, 251); color: rgb(32, 33, 34); font-family: sans-serif; font-size: 12.6px; animation-delay: -0.01ms !important; animation-duration: 0.01ms !important; animation-iteration-count: 1 !important; scroll-behavior: auto !important; transition-duration: 0ms !important;&quot;&gt;&lt;span style=&quot;color: var(--color-emphasized, #000); text-decoration-line: inherit; text-decoration-thickness: inherit; text-decoration-style: inherit; text-decoration-color: var(--color-emphasized, #000); animation-delay: -0.01ms !important; animation-duration: 0.01ms !important; animation-iteration-count: 1 !important; scroll-behavior: auto !important; transition-duration: 0ms !important;&quot;&gt;+HTTP&lt;/span&gt;&lt;/span&gt;&lt;/div&gt;" style="edgeLabel;html=1;align=center;verticalAlign=middle;resizable=0;points=[];" connectable="0" vertex="1" parent="ZyLhWv7GtL0qRULzW8Uy-8">
          <mxGeometry x="0.0889" y="-2" relative="1" as="geometry">
            <mxPoint as="offset" />
          </mxGeometry>
        </mxCell>
        <mxCell id="ZyLhWv7GtL0qRULzW8Uy-12" value="&lt;span style=&quot;text-wrap-mode: wrap; color: rgb(32, 33, 34); font-family: sans-serif; font-size: 12.6px; animation-delay: -0.01ms !important; animation-duration: 0.01ms !important; animation-iteration-count: 1 !important; scroll-behavior: auto !important; transition-duration: 0ms !important;&quot;&gt;&lt;span style=&quot;color: var(--color-emphasized, #000); text-decoration-line: inherit; text-decoration-thickness: inherit; text-decoration-style: inherit; text-decoration-color: var(--color-emphasized, #000); animation-delay: -0.01ms !important; animation-duration: 0.01ms !important; animation-iteration-count: 1 !important; scroll-behavior: auto !important; transition-duration: 0ms !important;&quot;&gt;&lt;span style=&quot;color: rgb(32, 33, 34); font-size: 12.6px; animation-delay: -0.01ms !important; animation-duration: 0.01ms !important; animation-iteration-count: 1 !important; scroll-behavior: auto !important; transition-duration: 0ms !important;&quot;&gt;&lt;span style=&quot;color: var(--color-emphasized, #000); text-decoration-line: inherit; text-decoration-thickness: inherit; text-decoration-style: inherit; text-decoration-color: var(--color-emphasized, #000); animation-delay: -0.01ms !important; animation-duration: 0.01ms !important; animation-iteration-count: 1 !important; scroll-behavior: auto !important; transition-duration: 0ms !important;&quot;&gt;«Web-Browser&lt;/span&gt;&lt;/span&gt;»&lt;/span&gt;&lt;/span&gt;&lt;div style=&quot;text-wrap-mode: wrap;&quot;&gt;&lt;font face=&quot;sans-serif&quot;&gt;&lt;span style=&quot;font-size: 12.6px;&quot;&gt;&lt;b&gt;Client-admin&lt;/b&gt;&lt;/span&gt;&lt;/font&gt;&lt;/div&gt;" style="verticalAlign=top;align=center;spacingTop=8;spacingLeft=2;spacingRight=12;shape=cube;size=10;direction=south;fontStyle=0;html=1;rounded=0;shadow=0;comic=0;labelBackgroundColor=none;strokeWidth=1;fontFamily=Verdana;fontSize=12;whiteSpace=wrap;" vertex="1" parent="1">
          <mxGeometry x="-290" y="50" width="200" height="140" as="geometry" />
        </mxCell>
        <mxCell id="ZyLhWv7GtL0qRULzW8Uy-13" value="&lt;span style=&quot;text-wrap-mode: wrap; color: rgb(32, 33, 34); font-family: sans-serif; font-size: 12.6px; animation-delay: -0.01ms !important; animation-duration: 0.01ms !important; animation-iteration-count: 1 !important; scroll-behavior: auto !important; transition-duration: 0ms !important;&quot;&gt;&lt;span style=&quot;color: var(--color-emphasized, #000); text-decoration-line: inherit; text-decoration-thickness: inherit; text-decoration-style: inherit; text-decoration-color: var(--color-emphasized, #000); animation-delay: -0.01ms !important; animation-duration: 0.01ms !important; animation-iteration-count: 1 !important; scroll-behavior: auto !important; transition-duration: 0ms !important;&quot;&gt;&lt;span style=&quot;color: rgb(32, 33, 34); font-size: 12.6px; animation-delay: -0.01ms !important; animation-duration: 0.01ms !important; animation-iteration-count: 1 !important; scroll-behavior: auto !important; transition-duration: 0ms !important;&quot;&gt;&lt;span style=&quot;color: var(--color-emphasized, #000); text-decoration-line: inherit; text-decoration-thickness: inherit; text-decoration-style: inherit; text-decoration-color: var(--color-emphasized, #000); animation-delay: -0.01ms !important; animation-duration: 0.01ms !important; animation-iteration-count: 1 !important; scroll-behavior: auto !important; transition-duration: 0ms !important;&quot;&gt;«Progressive Web App&lt;/span&gt;&lt;/span&gt;»&lt;/span&gt;&lt;/span&gt;&lt;div style=&quot;text-wrap-mode: wrap;&quot;&gt;&lt;font face=&quot;sans-serif&quot;&gt;&lt;span style=&quot;font-size: 12.6px;&quot;&gt;&lt;b&gt;Client-mobile&lt;/b&gt;&lt;/span&gt;&lt;/font&gt;&lt;/div&gt;" style="verticalAlign=top;align=center;spacingTop=8;spacingLeft=2;spacingRight=12;shape=cube;size=10;direction=south;fontStyle=0;html=1;rounded=0;shadow=0;comic=0;labelBackgroundColor=none;strokeWidth=1;fontFamily=Verdana;fontSize=12;whiteSpace=wrap;" vertex="1" parent="1">
          <mxGeometry x="-290" y="225" width="200" height="140" as="geometry" />
        </mxCell>
        <mxCell id="ZyLhWv7GtL0qRULzW8Uy-14" value="&lt;span style=&quot;text-wrap-mode: wrap; color: rgb(32, 33, 34); font-family: sans-serif; font-size: 12.6px; animation-delay: -0.01ms !important; animation-duration: 0.01ms !important; animation-iteration-count: 1 !important; scroll-behavior: auto !important; transition-duration: 0ms !important;&quot;&gt;&lt;span style=&quot;color: var(--color-emphasized, #000); text-decoration-line: inherit; text-decoration-thickness: inherit; text-decoration-style: inherit; text-decoration-color: var(--color-emphasized, #000); animation-delay: -0.01ms !important; animation-duration: 0.01ms !important; animation-iteration-count: 1 !important; scroll-behavior: auto !important; transition-duration: 0ms !important;&quot;&gt;&lt;span style=&quot;color: rgb(32, 33, 34); font-size: 12.6px; animation-delay: -0.01ms !important; animation-duration: 0.01ms !important; animation-iteration-count: 1 !important; scroll-behavior: auto !important; transition-duration: 0ms !important;&quot;&gt;&lt;span style=&quot;color: var(--color-emphasized, #000); text-decoration-line: inherit; text-decoration-thickness: inherit; text-decoration-style: inherit; text-decoration-color: var(--color-emphasized, #000); animation-delay: -0.01ms !important; animation-duration: 0.01ms !important; animation-iteration-count: 1 !important; scroll-behavior: auto !important; transition-duration: 0ms !important;&quot;&gt;«build&lt;/span&gt;&lt;/span&gt;»&lt;/span&gt;&lt;/span&gt;&lt;div style=&quot;&quot;&gt;&lt;font face=&quot;sans-serif&quot;&gt;&lt;span style=&quot;font-size: 12.6px;&quot;&gt;react-app&lt;/span&gt;&lt;/font&gt;&lt;/div&gt;" style="shape=component;align=center;spacingLeft=36;rounded=0;shadow=0;comic=0;labelBackgroundColor=none;strokeWidth=1;fontFamily=Verdana;fontSize=12;html=1;verticalAlign=middle;whiteSpace=wrap;" vertex="1" parent="1">
          <mxGeometry x="-260" y="110" width="130" height="55" as="geometry" />
        </mxCell>
        <mxCell id="ZyLhWv7GtL0qRULzW8Uy-15" value="&lt;span style=&quot;text-wrap-mode: wrap; color: rgb(32, 33, 34); font-family: sans-serif; font-size: 12.6px; animation-delay: -0.01ms !important; animation-duration: 0.01ms !important; animation-iteration-count: 1 !important; scroll-behavior: auto !important; transition-duration: 0ms !important;&quot;&gt;&lt;span style=&quot;color: var(--color-emphasized, #000); text-decoration-line: inherit; text-decoration-thickness: inherit; text-decoration-style: inherit; text-decoration-color: var(--color-emphasized, #000); animation-delay: -0.01ms !important; animation-duration: 0.01ms !important; animation-iteration-count: 1 !important; scroll-behavior: auto !important; transition-duration: 0ms !important;&quot;&gt;&lt;span style=&quot;color: rgb(32, 33, 34); font-size: 12.6px; animation-delay: -0.01ms !important; animation-duration: 0.01ms !important; animation-iteration-count: 1 !important; scroll-behavior: auto !important; transition-duration: 0ms !important;&quot;&gt;&lt;span style=&quot;color: var(--color-emphasized, #000); text-decoration-line: inherit; text-decoration-thickness: inherit; text-decoration-style: inherit; text-decoration-color: var(--color-emphasized, #000); animation-delay: -0.01ms !important; animation-duration: 0.01ms !important; animation-iteration-count: 1 !important; scroll-behavior: auto !important; transition-duration: 0ms !important;&quot;&gt;«build&lt;/span&gt;&lt;/span&gt;»&lt;/span&gt;&lt;/span&gt;&lt;div style=&quot;&quot;&gt;&lt;font face=&quot;sans-serif&quot;&gt;&lt;span style=&quot;font-size: 12.6px;&quot;&gt;react-app&lt;/span&gt;&lt;/font&gt;&lt;/div&gt;" style="shape=component;align=center;spacingLeft=36;rounded=0;shadow=0;comic=0;labelBackgroundColor=none;strokeWidth=1;fontFamily=Verdana;fontSize=12;html=1;verticalAlign=middle;whiteSpace=wrap;" vertex="1" parent="1">
          <mxGeometry x="-260" y="285" width="130" height="55" as="geometry" />
        </mxCell>
        <mxCell id="ZyLhWv7GtL0qRULzW8Uy-17" style="edgeStyle=orthogonalEdgeStyle;rounded=0;orthogonalLoop=1;jettySize=auto;html=1;exitX=0;exitY=0;exitDx=360;exitDy=1080;exitPerimeter=0;entryX=0;entryY=0;entryDx=65;entryDy=0;entryPerimeter=0;endArrow=none;endFill=0;" edge="1" parent="1" source="ZyLhWv7GtL0qRULzW8Uy-11" target="ZyLhWv7GtL0qRULzW8Uy-13">
          <mxGeometry relative="1" as="geometry">
            <mxPoint x="119" y="374.52" as="sourcePoint" />
            <mxPoint x="-10" y="255.52" as="targetPoint" />
          </mxGeometry>
        </mxCell>
        <mxCell id="ZyLhWv7GtL0qRULzW8Uy-18" value="&lt;span style=&quot;text-wrap-mode: wrap; background-color: rgb(251, 251, 251); color: rgb(32, 33, 34); font-family: sans-serif; font-size: 12.6px; animation-delay: -0.01ms !important; animation-duration: 0.01ms !important; animation-iteration-count: 1 !important; scroll-behavior: auto !important; transition-duration: 0ms !important;&quot;&gt;&lt;span style=&quot;color: var(--color-emphasized, #000); text-decoration-line: inherit; text-decoration-thickness: inherit; text-decoration-style: inherit; text-decoration-color: var(--color-emphasized, #000); animation-delay: -0.01ms !important; animation-duration: 0.01ms !important; animation-iteration-count: 1 !important; scroll-behavior: auto !important; transition-duration: 0ms !important;&quot;&gt;&lt;span style=&quot;color: rgb(32, 33, 34); animation-delay: -0.01ms !important; animation-duration: 0.01ms !important; animation-iteration-count: 1 !important; scroll-behavior: auto !important; transition-duration: 0ms !important;&quot;&gt;&lt;span style=&quot;color: var(--color-emphasized, #000); text-decoration-line: inherit; text-decoration-thickness: inherit; text-decoration-style: inherit; text-decoration-color: var(--color-emphasized, #000); animation-delay: -0.01ms !important; animation-duration: 0.01ms !important; animation-iteration-count: 1 !important; scroll-behavior: auto !important; transition-duration: 0ms !important;&quot;&gt;«protocol&lt;/span&gt;&lt;/span&gt;»&lt;/span&gt;&lt;/span&gt;&lt;div&gt;&lt;span style=&quot;text-wrap-mode: wrap; background-color: rgb(251, 251, 251); color: rgb(32, 33, 34); font-family: sans-serif; font-size: 12.6px; animation-delay: -0.01ms !important; animation-duration: 0.01ms !important; animation-iteration-count: 1 !important; scroll-behavior: auto !important; transition-duration: 0ms !important;&quot;&gt;&lt;span style=&quot;color: var(--color-emphasized, #000); text-decoration-line: inherit; text-decoration-thickness: inherit; text-decoration-style: inherit; text-decoration-color: var(--color-emphasized, #000); animation-delay: -0.01ms !important; animation-duration: 0.01ms !important; animation-iteration-count: 1 !important; scroll-behavior: auto !important; transition-duration: 0ms !important;&quot;&gt;+HTTP(S)&lt;/span&gt;&lt;/span&gt;&lt;/div&gt;" style="edgeLabel;html=1;align=center;verticalAlign=middle;resizable=0;points=[];" connectable="0" vertex="1" parent="ZyLhWv7GtL0qRULzW8Uy-17">
          <mxGeometry x="0.0889" y="-2" relative="1" as="geometry">
            <mxPoint as="offset" />
          </mxGeometry>
        </mxCell>
        <mxCell id="ZyLhWv7GtL0qRULzW8Uy-19" style="edgeStyle=orthogonalEdgeStyle;rounded=0;html=1;labelBackgroundColor=none;startArrow=none;startFill=0;startSize=8;endArrow=none;endFill=0;endSize=16;fontFamily=Verdana;fontSize=12;exitX=0.251;exitY=1;exitDx=0;exitDy=0;exitPerimeter=0;entryX=0;entryY=0;entryDx=65;entryDy=0;entryPerimeter=0;" edge="1" parent="1" source="ZyLhWv7GtL0qRULzW8Uy-11" target="ZyLhWv7GtL0qRULzW8Uy-12">
          <mxGeometry relative="1" as="geometry">
            <Array as="points">
              <mxPoint x="10" y="115" />
            </Array>
            <mxPoint x="60" y="130" as="sourcePoint" />
            <mxPoint x="-70" y="130" as="targetPoint" />
          </mxGeometry>
        </mxCell>
        <mxCell id="ZyLhWv7GtL0qRULzW8Uy-20" value="&lt;span style=&quot;text-wrap-mode: wrap; background-color: rgb(251, 251, 251); color: rgb(32, 33, 34); font-family: sans-serif; font-size: 12.6px; animation-delay: -0.01ms !important; animation-duration: 0.01ms !important; animation-iteration-count: 1 !important; scroll-behavior: auto !important; transition-duration: 0ms !important;&quot;&gt;&lt;span style=&quot;color: var(--color-emphasized, #000); text-decoration-line: inherit; text-decoration-thickness: inherit; text-decoration-style: inherit; text-decoration-color: var(--color-emphasized, #000); animation-delay: -0.01ms !important; animation-duration: 0.01ms !important; animation-iteration-count: 1 !important; scroll-behavior: auto !important; transition-duration: 0ms !important;&quot;&gt;&lt;span style=&quot;color: rgb(32, 33, 34); animation-delay: -0.01ms !important; animation-duration: 0.01ms !important; animation-iteration-count: 1 !important; scroll-behavior: auto !important; transition-duration: 0ms !important;&quot;&gt;&lt;span style=&quot;color: var(--color-emphasized, #000); text-decoration-line: inherit; text-decoration-thickness: inherit; text-decoration-style: inherit; text-decoration-color: var(--color-emphasized, #000); animation-delay: -0.01ms !important; animation-duration: 0.01ms !important; animation-iteration-count: 1 !important; scroll-behavior: auto !important; transition-duration: 0ms !important;&quot;&gt;«protocol&lt;/span&gt;&lt;/span&gt;»&lt;/span&gt;&lt;/span&gt;&lt;div&gt;&lt;div&gt;&lt;span style=&quot;text-wrap-mode: wrap; background-color: rgb(251, 251, 251); color: rgb(32, 33, 34); font-family: sans-serif; font-size: 12.6px; animation-delay: -0.01ms !important; animation-duration: 0.01ms !important; animation-iteration-count: 1 !important; scroll-behavior: auto !important; transition-duration: 0ms !important;&quot;&gt;&lt;span style=&quot;color: var(--color-emphasized, #000); text-decoration-line: inherit; text-decoration-thickness: inherit; text-decoration-style: inherit; text-decoration-color: var(--color-emphasized, #000); animation-delay: -0.01ms !important; animation-duration: 0.01ms !important; animation-iteration-count: 1 !important; scroll-behavior: auto !important; transition-duration: 0ms !important;&quot;&gt;+HTTP(S)&lt;/span&gt;&lt;/span&gt;&lt;/div&gt;&lt;/div&gt;" style="edgeLabel;html=1;align=center;verticalAlign=middle;resizable=0;points=[];" connectable="0" vertex="1" parent="ZyLhWv7GtL0qRULzW8Uy-19">
          <mxGeometry x="0.0462" y="-1" relative="1" as="geometry">
            <mxPoint as="offset" />
          </mxGeometry>
        </mxCell>
      </root>
    </mxGraphModel>
  </diagram>
</mxfile>
